<svg id="Ebene_4" data-name="Ebene 4" xmlns="http://www.w3.org/2000/svg" width="1042.24" height="283.46" viewBox="0 0 1042.24 283.46"><defs><style>.cls-1{fill:#bddbb5;}.cls-2{fill:#17a244;}</style></defs><g id="LOGO"><path d="M25.35,109.44a12.53,12.53,0,0,0,4.26-2.77v-14H18.7v3.5h7.05v8.68a7.09,7.09,0,0,1-2.61,1.44,10.48,10.48,0,0,1-3.37.54,11,11,0,0,1-4.75-1,9.32,9.32,0,0,1-3.45-2.74,12.5,12.5,0,0,1-2.13-4.29,20.09,20.09,0,0,1-.74-5.65,18.52,18.52,0,0,1,.79-5.58,12.64,12.64,0,0,1,2.21-4.24,9.45,9.45,0,0,1,3.45-2.69,10.66,10.66,0,0,1,4.56-.94,8.69,8.69,0,0,1,4.21.92,11.88,11.88,0,0,1,2.95,2.23l2.33-2.74a13.54,13.54,0,0,0-1.65-1.5,11.66,11.66,0,0,0-2.13-1.32,13,13,0,0,0-2.64-.94A13.62,13.62,0,0,0,19.61,76a15.59,15.59,0,0,0-6.11,1.19,13.76,13.76,0,0,0-4.85,3.42,16,16,0,0,0-3.17,5.43,21.39,21.39,0,0,0-1.14,7.21,22,22,0,0,0,1.12,7.28A15.62,15.62,0,0,0,8.55,106a13.17,13.17,0,0,0,4.75,3.37,15.37,15.37,0,0,0,6.06,1.17,15.53,15.53,0,0,0,6-1.09Zm24.19.48v-14h6l8,14h4.77L59.89,95.41a10.3,10.3,0,0,0,5.48-3.2,9.12,9.12,0,0,0,2-6.24,9.85,9.85,0,0,0-.86-4.36,7.64,7.64,0,0,0-2.41-2.89,9.88,9.88,0,0,0-3.7-1.6,21.68,21.68,0,0,0-4.7-.48H45.33v33.28Zm0-29.88h5.58a11.23,11.23,0,0,1,6,1.32Q63.2,82.68,63.19,86a5.73,5.73,0,0,1-2.08,4.85,9.71,9.71,0,0,1-6,1.6H49.54V80Zm48.87,29.75a9.06,9.06,0,0,0,3.78-2.43,11.61,11.61,0,0,0,2.51-4.44,21.54,21.54,0,0,0,.92-6.75V76.64h-4.06V96.27a17.88,17.88,0,0,1-.61,5,8.65,8.65,0,0,1-1.68,3.25,6.07,6.07,0,0,1-2.48,1.75,8.66,8.66,0,0,1-3.1.53,8.49,8.49,0,0,1-3-.53,5.88,5.88,0,0,1-2.46-1.75,8.77,8.77,0,0,1-1.65-3.25,17.52,17.52,0,0,1-.61-5V76.64H81.72V96.17a21.56,21.56,0,0,0,.91,6.75,11.88,11.88,0,0,0,2.51,4.44A9.16,9.16,0,0,0,89,109.79a14.9,14.9,0,0,0,4.74.74,14.64,14.64,0,0,0,4.72-.74Zm27.91.13V96.73h5.48a18.52,18.52,0,0,0,5-.63,11.23,11.23,0,0,0,3.89-1.91A8.48,8.48,0,0,0,143.19,91a10.89,10.89,0,0,0,.89-4.57,10.51,10.51,0,0,0-.92-4.62,7.86,7.86,0,0,0-2.53-3,10.74,10.74,0,0,0-3.94-1.64,23.69,23.69,0,0,0-5.1-.51h-9.48v33.28Zm0-29.88h4.77q4.35,0,6.57,1.39t2.2,5q0,3.55-2.1,5.2c-1.41,1.1-3.56,1.65-6.47,1.65h-5V80Zm35.82,29.88V96.73h5.48a18.65,18.65,0,0,0,5-.63,11.27,11.27,0,0,0,3.88-1.91A8.48,8.48,0,0,0,179,91a10.89,10.89,0,0,0,.89-4.57,10.51,10.51,0,0,0-.92-4.62,7.78,7.78,0,0,0-2.53-3,10.74,10.74,0,0,0-3.94-1.64,23.59,23.59,0,0,0-5.09-.51h-9.49v33.28Zm0-29.88h4.77q4.36,0,6.57,1.39t2.2,5q0,3.55-2.1,5.2c-1.41,1.1-3.56,1.65-6.47,1.65h-5V80Zm51.29,29.88v-3.6H198V94.24h12.63v-3.6H198V80.19h15V76.64H193.75v33.28Z"/><path class="cls-1" d="M99.33,201.14c36.84,53.72,100.53,83.63,177.54,82.28C367.66,281.84,448,235.15,475.06,163.8c-39,60.92-115,101.12-200.8,102.62-70.18,1.23-131.7-23.17-174.93-65.28Z"/><path class="cls-2" d="M97.13,66.42,109,5.14H66.22L54.31,66.42ZM2.69,229.79,0,244.8c23.55-3,43.85-12.12,59.9-32.39,12.81-16,16.67-40.26,20.56-60.24L86.7,120H43.88L36.63,157.3c-6.84,35.23-10,63-33.94,72.49Z"/><path class="cls-2" d="M320.52,14.23C302.79,4.29,282.78,0,260.51,0c-51.79,0-99.24,22.38-123.94,66.42h47.24c15.6-28.61,41-49.29,73.94-49.29,21.22,0,38.85,9,48.71,25.92l14.06-28.82ZM167.23,120H120c-4.94,58.22,40.48,84.66,96.78,84.66,25.12,0,51.64-5.71,78.72-12.85l15-81.43.23-.14h-.21v-.06l-.24.06H243.57l-5.52,26h25.38L255,179.57a70.29,70.29,0,0,1-33,8c-39.81,0-59.31-25-54.82-67.53Z"/></g><g id="Zeile_unten" data-name="Zeile unten"><path d="M366.33,110.34h9.95a22.47,22.47,0,0,1,4.66.45,11.09,11.09,0,0,1,3.62,1.43,6.79,6.79,0,0,1,2.35,2.53,7.74,7.74,0,0,1,.84,3.74A8.42,8.42,0,0,1,386.5,123a6.45,6.45,0,0,1-3.64,2.78v.2a8.85,8.85,0,0,1,4.94,2.55,7.62,7.62,0,0,1,1.89,5.46,9.47,9.47,0,0,1-.92,4.28,8.26,8.26,0,0,1-2.6,3.06,11.86,11.86,0,0,1-4,1.84,20.26,20.26,0,0,1-5.15.61H366.33V110.34Zm9.18,14.22q4.28,0,6.17-1.48a4.82,4.82,0,0,0,1.89-4,4.5,4.5,0,0,0-2-4.13,11.35,11.35,0,0,0-5.89-1.22h-5.15v10.86Zm.87,15.87a12,12,0,0,0,6.73-1.61,5.56,5.56,0,0,0,2.4-5,5,5,0,0,0-2.35-4.57,13,13,0,0,0-6.78-1.45h-5.82v12.6Z"/><path d="M420.08,133.59H407.9l-3.22,10.2h-4.33l11.32-33.46h4.79l11.33,33.46h-4.54ZM419,130.17l-1.58-5.1q-.92-2.8-1.73-5.58t-1.63-5.69h-.21c-.51,1.94-1,3.84-1.58,5.69s-1.12,3.71-1.73,5.58l-1.58,5.1Z"/><path d="M441,110.34h8.37q7.75,0,11.78,4.28t4,12.29a22.94,22.94,0,0,1-1,7.11,14.45,14.45,0,0,1-3,5.31,13,13,0,0,1-4.9,3.31,18,18,0,0,1-6.68,1.15H441V110.34Zm8.06,30q5.86,0,8.8-3.52t2.93-9.89q0-6.37-2.93-9.74t-8.8-3.37h-3.82v26.52Z"/><path d="M496.07,110.34h4.39l3.52,18.2q.47,2.76,1,5.41t1,5.4h.2q.57-2.74,1.17-5.43c.41-1.78.8-3.58,1.18-5.38l4.64-18.21H517l4.65,18.21c.4,1.77.81,3.55,1.22,5.36s.82,3.62,1.22,5.45h.21q.45-2.74.92-5.43c.3-1.78.63-3.58,1-5.38l3.52-18.21h4.08l-6.94,33.46h-5.1l-5.05-20.15c-.31-1.29-.59-2.55-.84-3.8s-.52-2.5-.79-3.8h-.21c-.27,1.3-.55,2.56-.84,3.8s-.57,2.51-.84,3.8l-4.95,20.15h-5Z"/><path d="M548,110.34h4.23v33.45H548Z"/><path d="M569.92,110.34h4.23v29.83h14.64v3.62H569.92Z"/><path d="M603.17,110.34h8.37q7.74,0,11.78,4.28t4,12.29a22.94,22.94,0,0,1-1,7.11,14.29,14.29,0,0,1-3,5.31,13,13,0,0,1-4.9,3.31,18,18,0,0,1-6.68,1.15h-8.57V110.34Zm8.06,30q5.87,0,8.8-3.52t2.93-9.89q0-6.37-2.93-9.74t-8.8-3.37H607.4v26.52Z"/><path d="M643,110.34h10a22.47,22.47,0,0,1,4.66.45,11.09,11.09,0,0,1,3.62,1.43,6.79,6.79,0,0,1,2.35,2.53,7.74,7.74,0,0,1,.84,3.74,8.42,8.42,0,0,1-1.25,4.52,6.45,6.45,0,0,1-3.64,2.78v.2a8.85,8.85,0,0,1,4.94,2.55,7.62,7.62,0,0,1,1.89,5.46,9.47,9.47,0,0,1-.92,4.28,8.26,8.26,0,0,1-2.6,3.06,11.86,11.86,0,0,1-4,1.84,20.26,20.26,0,0,1-5.15.61H643V110.34Zm9.18,14.22c2.86,0,4.91-.49,6.17-1.48a4.82,4.82,0,0,0,1.89-4,4.51,4.51,0,0,0-2-4.13,11.42,11.42,0,0,0-5.9-1.22h-5.15v10.86Zm.87,15.87a12,12,0,0,0,6.73-1.61,5.56,5.56,0,0,0,2.4-5,5,5,0,0,0-2.35-4.57,13,13,0,0,0-6.78-1.45h-5.82v12.6Z"/><path d="M696.76,133.59H684.57l-3.21,10.2H677l11.32-33.46h4.79l11.33,33.46h-4.54Zm-1.07-3.42-1.59-5.1q-.92-2.8-1.73-5.58c-.54-1.85-1.09-3.75-1.63-5.69h-.21c-.51,1.94-1,3.84-1.58,5.69s-1.12,3.71-1.73,5.58l-1.58,5.1Z"/><path d="M717.67,110.34H726q7.76,0,11.78,4.28t4,12.29a22.94,22.94,0,0,1-1,7.11,14.31,14.31,0,0,1-3,5.31,13,13,0,0,1-4.9,3.31,18,18,0,0,1-6.68,1.15h-8.57V110.34Zm8.05,30q5.87,0,8.8-3.52t2.93-9.89q0-6.37-2.93-9.74t-8.8-3.37H721.9v26.52Z"/></g><g id="Zeile_oben" data-name="Zeile oben"><path d="M366.31,29.3h15.25a35.23,35.23,0,0,1,6.83.62,17.4,17.4,0,0,1,5.4,2,9.71,9.71,0,0,1,3.58,3.62,11.17,11.17,0,0,1,1.28,5.55,12.13,12.13,0,0,1-1.76,6.35,9.06,9.06,0,0,1-4.89,4v.29a12.29,12.29,0,0,1,6.53,3.69,10.83,10.83,0,0,1,2.6,7.63,13.2,13.2,0,0,1-1.39,6.21,12.59,12.59,0,0,1-3.83,4.38,17.15,17.15,0,0,1-5.81,2.59,30,30,0,0,1-7.3.84H366.3V29.3ZM380.83,49q5,0,7.27-1.82a6,6,0,0,0,2.23-4.89c0-2.34-.78-4-2.34-5s-3.9-1.46-7-1.46h-6.2V49Zm1.1,21.46q5.25,0,8.1-1.93a6.69,6.69,0,0,0,2.85-6,6,6,0,0,0-2.77-5.51c-1.86-1.15-4.58-1.72-8.18-1.72h-7.15V70.47Z"/><path d="M423.58,77.92a18.6,18.6,0,0,1-6.93-1.28A16.51,16.51,0,0,1,411,73a17,17,0,0,1-3.75-5.88,21.49,21.49,0,0,1-1.36-7.92,21.32,21.32,0,0,1,1.39-7.88A18.1,18.1,0,0,1,411,45.36a16.49,16.49,0,0,1,5.29-3.72,15.06,15.06,0,0,1,6.13-1.31,15.56,15.56,0,0,1,6.43,1.24,12.4,12.4,0,0,1,4.63,3.5,15.41,15.41,0,0,1,2.81,5.4,23.41,23.41,0,0,1,1,6.86,21.62,21.62,0,0,1-.11,2.34,14.53,14.53,0,0,1-.25,1.75H414.09a11.54,11.54,0,0,0,3.4,7.41,10.17,10.17,0,0,0,7.19,2.59,13.3,13.3,0,0,0,4.34-.69,19.41,19.41,0,0,0,4-1.93l2.85,5.25a25.34,25.34,0,0,1-5.7,2.77A19.53,19.53,0,0,1,423.58,77.92Zm6.35-22.19a10.57,10.57,0,0,0-1.79-6.53,6.42,6.42,0,0,0-5.51-2.38A8,8,0,0,0,417,49.09a10.76,10.76,0,0,0-3,6.64Z"/><path d="M443.91,41.2h6.94l.58,6.35h.29a15.12,15.12,0,0,1,4.6-5.36A10.12,10.12,0,0,1,466,41.06l-1.46,7.3a15.44,15.44,0,0,0-1.75-.44,11.09,11.09,0,0,0-2-.15,7.8,7.8,0,0,0-4.45,1.65,12.61,12.61,0,0,0-4,5.73V77h-8.4V41.2Z"/><path d="M481.18,77.92q-5.78,0-8.4-3.69t-2.63-10.54V41.2h8.4V62.59q0,4.45,1.31,6.28a4.86,4.86,0,0,0,4.24,1.82,7.43,7.43,0,0,0,4.12-1.16,17,17,0,0,0,3.83-3.8V41.2h8.4V77h-6.86l-.66-5.25h-.22a21.18,21.18,0,0,1-5.07,4.45A12.12,12.12,0,0,1,481.18,77.92Z"/><path d="M527.57,32.15a9.66,9.66,0,0,0-3.94-.88c-3,0-4.52,2-4.52,6.06V41.2h7v6.65h-7V77h-8.4V47.85h-4.82V41.57l4.82-.37V37.48a19.21,19.21,0,0,1,.66-5.15,10.45,10.45,0,0,1,2.12-4.08,9.7,9.7,0,0,1,3.68-2.67,14,14,0,0,1,5.44-.95,16.8,16.8,0,0,1,3.61.37,17,17,0,0,1,3,.87Z"/><path d="M541.81,77.92a19.87,19.87,0,0,1-7.34-1.42A23.74,23.74,0,0,1,528.23,73l3.94-5.4a22.87,22.87,0,0,0,4.78,3,12.43,12.43,0,0,0,5.15,1.06,6.49,6.49,0,0,0,4.31-1.2,4,4,0,0,0,1.38-3.11,3.08,3.08,0,0,0-.65-1.93,6.37,6.37,0,0,0-1.75-1.5,16,16,0,0,0-2.49-1.2c-.92-.37-1.85-.74-2.77-1.13-1.17-.44-2.36-1-3.58-1.54a14.66,14.66,0,0,1-3.25-2.11A10.85,10.85,0,0,1,531,55a7.86,7.86,0,0,1-.91-3.9,9.69,9.69,0,0,1,3.5-7.74q3.51-3,9.56-3a16.51,16.51,0,0,1,6.72,1.31,25.26,25.26,0,0,1,5.18,3l-3.87,5.11a20.05,20.05,0,0,0-3.83-2.22,10.06,10.06,0,0,0-4.05-.84,5.86,5.86,0,0,0-4,1.13A3.6,3.6,0,0,0,538,50.62a2.88,2.88,0,0,0,.62,1.86,5.78,5.78,0,0,0,1.65,1.35,16.48,16.48,0,0,0,2.37,1.1c.9.34,1.84.68,2.81,1,1.22.44,2.43.94,3.65,1.49a15.48,15.48,0,0,1,3.32,2.08,9.54,9.54,0,0,1,2.41,3,9.31,9.31,0,0,1,.91,4.27,10.37,10.37,0,0,1-.91,4.35,10,10,0,0,1-2.67,3.5,12.9,12.9,0,0,1-4.38,2.38A19,19,0,0,1,541.81,77.92Z"/><path d="M580.93,32.15a9.73,9.73,0,0,0-3.94-.88q-4.53,0-4.53,6.06V41.2h7v6.65h-7V77h-8.39V47.85h-4.82V41.57l4.82-.37V37.48a19.22,19.22,0,0,1,.65-5.15,10.59,10.59,0,0,1,2.12-4.08,9.66,9.66,0,0,1,3.69-2.67,13.86,13.86,0,0,1,5.43-.95,18.18,18.18,0,0,1,6.57,1.24Z"/><path d="M598.88,77.92a17,17,0,0,1-6.43-1.24A16,16,0,0,1,587,73a17.4,17.4,0,0,1-3.76-5.91,21.4,21.4,0,0,1-1.39-8,21.4,21.4,0,0,1,1.39-8A17.35,17.35,0,0,1,587,45.29a16.79,16.79,0,0,1,18.32-3.69,16.05,16.05,0,0,1,5.44,3.69,18.47,18.47,0,0,1,3.76,5.91,21,21,0,0,1,1.42,8,21,21,0,0,1-1.42,8A18.36,18.36,0,0,1,610.78,73a15.53,15.53,0,0,1-5.44,3.65A17.18,17.18,0,0,1,598.88,77.92Zm-7.52-43.07a4.31,4.31,0,1,1,3.21-1.28A4.26,4.26,0,0,1,591.36,34.85Zm7.52,36.21a7.15,7.15,0,0,0,6.2-3.25,14.84,14.84,0,0,0,2.27-8.65q0-5.47-2.27-8.72a7.14,7.14,0,0,0-6.2-3.25,7.06,7.06,0,0,0-6.17,3.25,15.2,15.2,0,0,0-2.23,8.72,15.07,15.07,0,0,0,2.23,8.65A7.06,7.06,0,0,0,598.88,71.06Zm7.52-36.21a4.3,4.3,0,0,1-3.22-1.28,4.68,4.68,0,0,1,0-6.35,4.5,4.5,0,0,1,6.39,6.35A4.27,4.27,0,0,1,606.4,34.85Z"/><path d="M622.65,41.2h6.93l.59,6.35h.29a15,15,0,0,1,4.6-5.36,9.67,9.67,0,0,1,5.55-1.86,9.52,9.52,0,0,1,4.08.73l-1.46,7.3a14.45,14.45,0,0,0-1.75-.44,10.89,10.89,0,0,0-2-.15,7.78,7.78,0,0,0-4.45,1.65,12.62,12.62,0,0,0-4,5.73V77h-8.39V41.2Z"/><path d="M660.93,77.92A13.09,13.09,0,0,1,650.16,73q-4-4.92-4-13.83a22.89,22.89,0,0,1,1.28-7.88,18.41,18.41,0,0,1,3.39-5.92,15.18,15.18,0,0,1,4.85-3.72,12.93,12.93,0,0,1,5.66-1.32,11.62,11.62,0,0,1,5.19,1.06,20.82,20.82,0,0,1,4.23,2.89l-.29-5.77v-13h8.39V77.05H672l-.59-3.87h-.29a18.9,18.9,0,0,1-4.6,3.35A11.65,11.65,0,0,1,660.93,77.92ZM663,71c2.68,0,5.18-1.34,7.52-4V50.25a12,12,0,0,0-3.69-2.33,10.33,10.33,0,0,0-3.61-.66,7.24,7.24,0,0,0-5.91,3.07q-2.41,3.06-2.41,8.76T657,68A6.85,6.85,0,0,0,663,71Z"/><path d="M703.36,77.92a18.6,18.6,0,0,1-6.93-1.28A16.37,16.37,0,0,1,690.81,73a16.82,16.82,0,0,1-3.76-5.88,21.7,21.7,0,0,1-1.35-7.92,21.32,21.32,0,0,1,1.38-7.88,18.27,18.27,0,0,1,3.69-5.92,16.49,16.49,0,0,1,5.29-3.72,15.06,15.06,0,0,1,6.13-1.31,15.56,15.56,0,0,1,6.43,1.24,12.4,12.4,0,0,1,4.63,3.5,15.59,15.59,0,0,1,2.82,5.4,23.75,23.75,0,0,1,.94,6.86,21.62,21.62,0,0,1-.11,2.34,14.53,14.53,0,0,1-.25,1.75H693.87a11.54,11.54,0,0,0,3.4,7.41,10.17,10.17,0,0,0,7.19,2.59,13.25,13.25,0,0,0,4.34-.69,19.41,19.41,0,0,0,4-1.93l2.85,5.25a25.34,25.34,0,0,1-5.7,2.77A19.53,19.53,0,0,1,703.36,77.92Zm6.35-22.19a10.57,10.57,0,0,0-1.79-6.53,6.42,6.42,0,0,0-5.51-2.38,8,8,0,0,0-5.62,2.27,10.76,10.76,0,0,0-3,6.64Z"/><path d="M723.69,41.2h6.94l.58,6.35h.29a15.12,15.12,0,0,1,4.6-5.36,10.12,10.12,0,0,1,9.64-1.13l-1.46,7.3a15.44,15.44,0,0,0-1.75-.44,11.09,11.09,0,0,0-2-.15,7.8,7.8,0,0,0-4.45,1.65,12.61,12.61,0,0,0-4,5.73V77h-8.4V41.2Z"/><path d="M761,77.92q-5.78,0-8.4-3.69t-2.63-10.54V41.2h8.4V62.59q0,4.45,1.31,6.28a4.86,4.86,0,0,0,4.24,1.82A7.43,7.43,0,0,0,768,69.53a17,17,0,0,0,3.83-3.8V41.2h8.4V77h-6.86l-.66-5.25h-.22a21.18,21.18,0,0,1-5.07,4.45A12.12,12.12,0,0,1,761,77.92Z"/><path d="M789,41.2h6.94l.58,4.82h.29A28.62,28.62,0,0,1,802,42a12.6,12.6,0,0,1,6.54-1.68q5.76,0,8.39,3.69t2.63,10.55V77h-8.4V55.65c0-3-.43-5.06-1.31-6.27a4.94,4.94,0,0,0-4.31-1.83,7.56,7.56,0,0,0-4.12,1.13,26.32,26.32,0,0,0-4,3.32V77H789V41.2Z"/><path d="M840.3,92.89a28.44,28.44,0,0,1-5.95-.59,15.45,15.45,0,0,1-4.71-1.75,9.17,9.17,0,0,1-3.1-2.92,7.66,7.66,0,0,1,.18-8.29,12.24,12.24,0,0,1,3.8-3.46v-.29a7.35,7.35,0,0,1-2.3-2.34,6.75,6.75,0,0,1-.91-3.65,6.52,6.52,0,0,1,1.2-3.83A11.47,11.47,0,0,1,831.25,63v-.3A12.73,12.73,0,0,1,828,58.83a11,11,0,0,1-1.43-5.66,12.38,12.38,0,0,1,1.17-5.47,12.05,12.05,0,0,1,3.11-4.05,13.06,13.06,0,0,1,4.48-2.48,17.26,17.26,0,0,1,5.41-.84,15.14,15.14,0,0,1,2.81.25,19.24,19.24,0,0,1,2.44.62h12.85v6.21h-6.57A8.32,8.32,0,0,1,853.73,50a9.87,9.87,0,0,1,.59,3.47,12.36,12.36,0,0,1-1.06,5.25,10.94,10.94,0,0,1-2.89,3.8,12.56,12.56,0,0,1-4.3,2.33,17.14,17.14,0,0,1-5.33.81,13.42,13.42,0,0,1-2.41-.22,12.07,12.07,0,0,1-2.48-.73,7.27,7.27,0,0,0-1.28,1.46,3.55,3.55,0,0,0-.48,2,2.77,2.77,0,0,0,1.28,2.41c.85.58,2.37.88,4.56.88h6.35q6.51,0,9.82,2.08c2.22,1.38,3.32,3.63,3.32,6.75a9.76,9.76,0,0,1-1.35,5,12.29,12.29,0,0,1-3.83,4,20.22,20.22,0,0,1-6,2.66A29.39,29.39,0,0,1,840.3,92.89Zm1.31-5.48a12.82,12.82,0,0,0,7-1.72q2.65-1.71,2.66-4a2.8,2.8,0,0,0-1.64-2.84,12,12,0,0,0-4.71-.73h-4.89a19.78,19.78,0,0,1-4.89-.52q-2.78,2.13-2.78,4.75a4.16,4.16,0,0,0,2.45,3.76A14.07,14.07,0,0,0,841.61,87.41Zm-.87-27a5.93,5.93,0,0,0,4.38-1.86,7.38,7.38,0,0,0,1.82-5.37A7.22,7.22,0,0,0,845.15,48a5.87,5.87,0,0,0-4.41-1.86,6.07,6.07,0,0,0-4.46,1.83,7.14,7.14,0,0,0-1.82,5.25,7.38,7.38,0,0,0,1.82,5.37A6,6,0,0,0,840.74,60.4Z"/><path d="M875,77.92a19.87,19.87,0,0,1-7.34-1.42A23.74,23.74,0,0,1,861.46,73l3.94-5.4a22.87,22.87,0,0,0,4.78,3,12.46,12.46,0,0,0,5.15,1.06,6.49,6.49,0,0,0,4.31-1.2A4,4,0,0,0,881,67.26a3,3,0,0,0-.66-1.93,6.37,6.37,0,0,0-1.75-1.5,16,16,0,0,0-2.49-1.2c-.92-.37-1.85-.74-2.77-1.13-1.17-.44-2.36-1-3.58-1.54a14.36,14.36,0,0,1-3.24-2.11A10.7,10.7,0,0,1,864.2,55a7.86,7.86,0,0,1-.91-3.9,9.72,9.72,0,0,1,3.5-7.74q3.51-3,9.56-3a16.48,16.48,0,0,1,6.72,1.31,25.26,25.26,0,0,1,5.18,3l-3.87,5.11a20.05,20.05,0,0,0-3.83-2.22,10.06,10.06,0,0,0-4-.84,5.86,5.86,0,0,0-4,1.13,3.6,3.6,0,0,0-1.28,2.81,2.88,2.88,0,0,0,.62,1.86,5.92,5.92,0,0,0,1.65,1.35,16.48,16.48,0,0,0,2.37,1.1c.9.34,1.84.68,2.81,1,1.22.44,2.43.94,3.65,1.49a15.24,15.24,0,0,1,3.32,2.08,9.54,9.54,0,0,1,2.41,3,9.31,9.31,0,0,1,.91,4.27,10.37,10.37,0,0,1-.91,4.35,10,10,0,0,1-2.66,3.5A13.09,13.09,0,0,1,881,77.05,19.07,19.07,0,0,1,875,77.92Z"/><path d="M892.06,41.2h8.47l4.31,18.62c.39,1.7.71,3.4,1,5.11s.57,3.43.91,5.18h.3q.51-2.62,1.06-5.18t1.2-5.11L914,41.2h7.67l4.74,18.62q.66,2.55,1.24,5.11t1.17,5.18h.29q.51-2.62.95-5.18t1-5.11l4.31-18.62h7.88L934,77.05H924l-4.16-16.72c-.39-1.7-.76-3.4-1.1-5.08s-.71-3.46-1.09-5.36h-.3q-.51,2.85-1,5.4t-1.09,5.11l-4.09,16.65h-9.64Z"/><path d="M963.32,77.92a18.62,18.62,0,0,1-6.94-1.28A16.56,16.56,0,0,1,950.76,73,16.82,16.82,0,0,1,947,67.08a21.7,21.7,0,0,1-1.35-7.92A21.12,21.12,0,0,1,947,51.28a18.08,18.08,0,0,1,3.68-5.92,16.53,16.53,0,0,1,5.3-3.72,15,15,0,0,1,6.13-1.31,15.55,15.55,0,0,1,6.42,1.24,12.43,12.43,0,0,1,4.64,3.5,15.41,15.41,0,0,1,2.81,5.4,23.75,23.75,0,0,1,1,6.86c0,.83,0,1.61-.11,2.34a14.24,14.24,0,0,1-.26,1.75H953.83a11.58,11.58,0,0,0,3.39,7.41,10.19,10.19,0,0,0,7.19,2.59,13.31,13.31,0,0,0,4.35-.69,19.92,19.92,0,0,0,4-1.93l2.84,5.25a25.26,25.26,0,0,1-5.69,2.77A19.62,19.62,0,0,1,963.32,77.92Zm6.35-22.19a10.64,10.64,0,0,0-1.79-6.53,6.44,6.44,0,0,0-5.51-2.38,7.94,7.94,0,0,0-5.62,2.27,10.71,10.71,0,0,0-3,6.64Z"/><path d="M983.65,41.2h6.93l.59,6.35h.29a14.93,14.93,0,0,1,4.6-5.36,9.67,9.67,0,0,1,5.54-1.86,9.54,9.54,0,0,1,4.09.73l-1.46,7.3a14.45,14.45,0,0,0-1.75-.44,10.89,10.89,0,0,0-2-.15,7.78,7.78,0,0,0-4.45,1.65,12.62,12.62,0,0,0-4,5.73V77h-8.39V41.2Z"/><path d="M1010.05,25.51h8.25V57.7h.22l13.28-16.5h9.2l-12.26,14.6L1042.24,77h-9.12l-9.2-15.54-5.62,6.42V77h-8.25Z"/></g></svg>