<svg version="1.1" xmlns="http://www.w3.org/2000/svg" xmlns:xlink="http://www.w3.org/1999/xlink" x="0px" y="0px" fill="#0069b4" viewBox="0 0 340.158 524.409">
	<path d="M226.772,212.598H0c0,62.621,50.764,113.386,113.386,113.386h226.772
            C340.158,263.363,289.393,212.598,226.772,212.598z" />
	<path d="M162.992,41.284v29.582h14.173V41.284c8.252-2.922,14.173-10.771,14.173-20.024
            c0-11.741-9.518-21.26-21.26-21.26c-11.741,0-21.26,9.518-21.26,21.26C148.819,30.513,154.74,38.362,162.992,41.284z" />
	<rect x="162.992" y="467.716" width="14.173" height="56.693" />
	<path d="M113.386,340.158C50.764,340.158,0,390.922,0,453.543h226.772
            c62.621,0,113.386-50.765,113.386-113.386H113.386z" />
	<path d="M113.386,85.039C50.764,85.039,0,135.804,0,198.425h226.772c62.621,0,113.386-50.765,113.386-113.386
            H113.386z M258.201,141.48c-9.393,0-17.008-7.615-17.008-17.008c0-9.393,7.615-17.008,17.008-17.008
            c9.393,0,17.008,7.615,17.008,17.008C275.209,133.866,267.594,141.48,258.201,141.48z" />
</svg>
